<mxfile host="app.diagrams.net" modified="2021-08-23T16:55:53.375Z" agent="5.0 (Macintosh; Intel Mac OS X 10_15_7) AppleWebKit/537.36 (KHTML, like Gecko) Chrome/83.0.4103.122 Safari/537.36" etag="W6J6j4kVTFnKv0ZqXtK7" version="14.7.3" type="github">
  <diagram id="2B67-QnPXzUXK-wI-6EL" name="metal">
    <mxGraphModel dx="791" dy="356" grid="1" gridSize="10" guides="1" tooltips="1" connect="1" arrows="1" fold="1" page="1" pageScale="1" pageWidth="827" pageHeight="1169" math="0" shadow="0">
      <root>
        <mxCell id="0" />
        <mxCell id="1" parent="0" />
        <mxCell id="PPYU9U6DtvyVQjIobpz9-1" value="MetalBuffer" style="swimlane;fontStyle=1;align=center;verticalAlign=top;childLayout=stackLayout;horizontal=1;startSize=26;horizontalStack=0;resizeParent=1;resizeParentMax=0;resizeLast=0;collapsible=1;marginBottom=0;" vertex="1" parent="1">
          <mxGeometry x="110" y="80" width="220" height="264" as="geometry" />
        </mxCell>
        <mxCell id="PPYU9U6DtvyVQjIobpz9-2" value="- buffer_: id&lt;MTLBuffer&gt;&#xa;- rawdata_: void*&#xa;- metal_context_: MetalContext*&#xa;- dim_: DDim&#xa;- tensor_dim_: DDim&#xa;- mtl_size_: size_t&#xa;- precision_size_: size_t&#xa;- can_copy_to_: bool&#xa;+ data_layout_: DataLayout&#xa;+ access_: METAL_ACCESS_FLAG&#xa;+ precision_: METAL_PRECISION_TYPE&#xa;+ convert_to_nhwc: bool&#xa;+ with_transpose_: bool&#xa;+ pad_when_one_channel_: bool" style="text;strokeColor=none;fillColor=none;align=left;verticalAlign=top;spacingLeft=4;spacingRight=4;overflow=hidden;rotatable=0;points=[[0,0.5],[1,0.5]];portConstraint=eastwest;" vertex="1" parent="PPYU9U6DtvyVQjIobpz9-1">
          <mxGeometry y="26" width="220" height="204" as="geometry" />
        </mxCell>
        <mxCell id="PPYU9U6DtvyVQjIobpz9-3" value="" style="line;strokeWidth=1;fillColor=none;align=left;verticalAlign=middle;spacingTop=-1;spacingLeft=3;spacingRight=3;rotatable=0;labelPosition=right;points=[];portConstraint=eastwest;" vertex="1" parent="PPYU9U6DtvyVQjIobpz9-1">
          <mxGeometry y="230" width="220" height="8" as="geometry" />
        </mxCell>
        <mxCell id="PPYU9U6DtvyVQjIobpz9-4" value="- convert2NHWC(): void" style="text;strokeColor=none;fillColor=none;align=left;verticalAlign=top;spacingLeft=4;spacingRight=4;overflow=hidden;rotatable=0;points=[[0,0.5],[1,0.5]];portConstraint=eastwest;" vertex="1" parent="PPYU9U6DtvyVQjIobpz9-1">
          <mxGeometry y="238" width="220" height="26" as="geometry" />
        </mxCell>
        <mxCell id="PPYU9U6DtvyVQjIobpz9-5" value="MetalImage" style="swimlane;fontStyle=1;align=center;verticalAlign=top;childLayout=stackLayout;horizontal=1;startSize=26;horizontalStack=0;resizeParent=1;resizeParentMax=0;resizeLast=0;collapsible=1;marginBottom=0;" vertex="1" parent="1">
          <mxGeometry x="500" y="80" width="220" height="264" as="geometry" />
        </mxCell>
        <mxCell id="PPYU9U6DtvyVQjIobpz9-6" value="- image_: id&lt;MTLTexture&gt;&#xa;- desc_: MTLTextureDesc*&#xa;+ src_tensor_: void*&#xa;- precision_type_: METAL_PRECISION_TYPE&#xa;+ dim_: DDim&#xa;+ tensor_dim_: DDim&#xa;+ pad_to_four_dim_: DDim&#xa;+ transpose_: vector&lt;int&gt;&#xa;+ use_mps_: bool&#xa;+ channels_per_pixel_: size_t&#xa;+ array_lenght_: size_t&#xa;+ texture_width_: size_t&#xa;+ texture_height_: size_t&#xa;+ size_: size_t" style="text;strokeColor=none;fillColor=none;align=left;verticalAlign=top;spacingLeft=4;spacingRight=4;overflow=hidden;rotatable=0;points=[[0,0.5],[1,0.5]];portConstraint=eastwest;" vertex="1" parent="PPYU9U6DtvyVQjIobpz9-5">
          <mxGeometry y="26" width="220" height="204" as="geometry" />
        </mxCell>
        <mxCell id="PPYU9U6DtvyVQjIobpz9-7" value="" style="line;strokeWidth=1;fillColor=none;align=left;verticalAlign=middle;spacingTop=-1;spacingLeft=3;spacingRight=3;rotatable=0;labelPosition=right;points=[];portConstraint=eastwest;" vertex="1" parent="PPYU9U6DtvyVQjIobpz9-5">
          <mxGeometry y="230" width="220" height="8" as="geometry" />
        </mxCell>
        <mxCell id="PPYU9U6DtvyVQjIobpz9-8" value="- convert2NHWC(): void" style="text;strokeColor=none;fillColor=none;align=left;verticalAlign=top;spacingLeft=4;spacingRight=4;overflow=hidden;rotatable=0;points=[[0,0.5],[1,0.5]];portConstraint=eastwest;" vertex="1" parent="PPYU9U6DtvyVQjIobpz9-5">
          <mxGeometry y="238" width="220" height="26" as="geometry" />
        </mxCell>
      </root>
    </mxGraphModel>
  </diagram>
</mxfile>
